<svg width="163" height="132" viewBox="0 0 163 132" fill="none" xmlns="http://www.w3.org/2000/svg">
<ellipse cx="84.5595" cy="81.5516" rx="25.9685" ry="24.4229" fill="#FBE285"/>
<path d="M84.75 109.954C99.4246 109.954 111.321 97.6901 111.321 82.5621C111.321 67.4338 99.4246 55.1698 84.75 55.1698C70.075 55.1698 58.1786 67.4338 58.1786 82.5621C58.1786 97.6901 70.075 109.954 84.75 109.954ZM84.75 101.654C74.522 101.654 66.2305 93.106 66.2305 82.5621C66.2305 72.0182 74.522 63.4705 84.75 63.4705C94.9779 63.4705 103.269 72.0182 103.269 82.5621C103.269 93.106 94.9779 101.654 84.75 101.654Z" fill="#343434"/>
<path d="M93.8018 31.9478C100.13 32.3756 106.106 34.3114 110.422 37.1197C120.097 43.4164 123.652 49.1956 126.742 54.7514C129.839 60.3201 133.073 67.417 133.073 78.3975C133.073 83.5411 132.52 86.1143 132.054 88.282L131.975 88.6503C131.595 90.4372 131.276 92.0649 131.61 96.2341C132.041 101.624 130.987 107.481 128.793 112.669C126.605 117.844 123.14 122.687 118.459 125.703C108.93 131.842 97.4332 133.183 86.6474 128.734C81.8628 126.761 80.3902 126.365 78.774 126.261C77.8526 126.201 76.8283 126.235 75.0626 126.304L75.0194 126.306C73.308 126.372 71.0855 126.458 68.0129 126.458C54.0786 126.458 44.8237 117.851 40.1241 108.535C33.2675 94.9417 33.3887 74.2462 48.6091 61.8588C53.1024 58.202 54.2981 57.0952 55.7035 54.6804C58.2191 50.3582 60.6354 46.9244 63.5835 43.9436C66.5393 40.9551 69.8882 38.5647 74.1247 36.1627C80.424 32.5911 87.4417 31.5178 93.8018 31.9478ZM93.2749 40.2307C88.1107 39.8815 82.691 40.7791 78.005 43.436C74.1895 45.5993 71.4995 47.5667 69.2215 49.8698C66.9358 52.1808 64.9236 54.9726 62.6081 58.951C60.3558 62.8207 58.0427 64.7569 53.5985 68.374C42.2302 77.6262 41.6646 93.5966 47.2679 104.705C50.9424 111.99 57.7914 118.158 68.0129 118.158C70.9339 118.158 73.0343 118.076 74.7264 118.011L74.8687 118.005C76.4734 117.943 77.9034 117.887 79.2801 117.976C82.3228 118.174 84.8761 119.064 89.638 121.028C97.9454 124.454 106.753 123.457 114.191 118.664C117.143 116.762 119.686 113.435 121.411 109.352C123.132 105.284 123.896 100.797 123.585 96.9178C123.176 91.8187 123.581 89.3556 124.111 86.8695L124.199 86.4614C124.605 84.5796 125.021 82.6491 125.021 78.3975C125.021 69.3846 122.457 63.7356 119.757 58.8801C117.049 54.0116 114.304 49.4624 106.124 44.139C103.107 42.1756 98.4708 40.582 93.2749 40.2307Z" fill="#343434"/>
<ellipse cx="141.877" cy="19.0618" rx="20.2681" ry="19.0618" fill="#FBE285"/>
<ellipse cx="95.0067" cy="11.9135" rx="7.60054" ry="7.14816" fill="#FBE285"/>
<ellipse cx="5.7004" cy="124.497" rx="5.7004" ry="5.36112" fill="#FBE285"/>
</svg>
