<svg width="93" height="89" viewBox="0 0 93 89" fill="none" xmlns="http://www.w3.org/2000/svg">
<path fill-rule="evenodd" clip-rule="evenodd" d="M47 2C72.4051 2 93 21.3752 93 45.2756C93 69.1761 72.4051 88.5513 47 88.5513C21.5949 88.5513 1 69.1761 1 45.2756C1 21.3752 21.5949 2 47 2Z" fill="#FFE082"/>
<mask id="mask0_36_30" style="mask-type:luminance" maskUnits="userSpaceOnUse" x="1" y="1" width="92" height="87">
<path d="M47 1C72.4051 1 93 20.3752 93 44.2756C93 68.1761 72.4051 87.5513 47 87.5513C21.5949 87.5513 1 68.1761 1 44.2756C1 20.3752 21.5949 1 47 1Z" fill="white"/>
</mask>
<g mask="url(#mask0_36_30)">
<path fill-rule="evenodd" clip-rule="evenodd" d="M61.9641 37.5934L112.99 85.5974L113.001 85.6254L113.019 85.675L113.046 85.7449L113.079 85.8346L113.119 85.9427L113.164 86.0682L113.216 86.2104L113.272 86.368L113.332 86.5399L113.397 86.7254L113.464 86.9233L113.535 87.1326L113.608 87.3523L113.682 87.5815L113.758 87.819L113.835 88.0639L113.912 88.3152L113.989 88.5718L114.064 88.8329L114.139 89.0971L114.212 89.3639L114.282 89.6318L114.349 89.8999L114.413 90.1676L114.473 90.4333L114.529 90.6964L114.579 90.9556L114.624 91.2102L114.663 91.459L114.696 91.7009L114.721 91.9352L114.739 92.1605L63.7128 44.1566L63.695 43.9313L63.6697 43.697L63.6372 43.4551L63.5983 43.2062L63.5533 42.9517L63.5027 42.6925L63.4472 42.4294L63.3872 42.1635L63.3234 41.896L63.256 41.6277L63.1856 41.3598L63.113 41.0932L63.0386 40.829L62.9627 40.5679L62.886 40.3113L62.8091 40.06L62.7324 39.8151L62.6565 39.5776L62.5817 39.3484L62.5088 39.1287L62.4383 38.9194L62.3706 38.7214L62.3061 38.536L62.2456 38.364L62.1896 38.2064L62.1384 38.0643L62.0927 37.9388L62.0529 37.8307L62.0196 37.741L61.9934 37.6709L61.9748 37.6215L61.9641 37.5934Z" fill="#E9CD78"/>
<path fill-rule="evenodd" clip-rule="evenodd" d="M38.3524 33.254L89.3782 81.2579L89.5763 81.4532L89.768 81.6552L89.9526 81.864L90.1298 82.0795L90.2991 82.3015L90.4599 82.53L90.6117 82.7647L90.7541 83.0055L90.8863 83.2525L39.8604 35.2486L39.7281 35.0016L39.5858 34.7607L39.434 34.5261L39.2733 34.2976L39.1039 34.0756L38.9267 33.8601L38.742 33.6512L38.5504 33.4492L38.3524 33.254Z" fill="#E9CD78"/>
<path fill-rule="evenodd" clip-rule="evenodd" d="M32.832 41.5823L83.8579 89.5862L83.8221 89.5565L32.7961 41.5526L32.832 41.5823Z" fill="#E9CD78"/>
<path fill-rule="evenodd" clip-rule="evenodd" d="M34.4368 47.6984L85.4627 95.7023L85.4167 95.6701L85.3735 95.6358L34.3475 47.6318L34.3909 47.6661L34.4368 47.6984Z" fill="#E9CD78"/>
<path fill-rule="evenodd" clip-rule="evenodd" d="M50.6563 58.7435L101.682 106.747L101.659 106.852L101.634 106.965L101.609 107.084L101.584 107.21L101.558 107.341L101.533 107.478L101.508 107.62L101.483 107.767L101.459 107.917L101.437 108.07L101.416 108.227L101.396 108.386L101.378 108.547L101.363 108.709L101.349 108.872L101.339 109.035L101.331 109.199L101.326 109.361L101.325 109.523L101.327 109.683L101.333 109.84L101.344 109.995L101.358 110.147L101.378 110.296L101.402 110.44L101.431 110.579L101.465 110.713L101.506 110.842L101.552 110.964L101.604 111.08L101.663 111.189L101.728 111.289L50.7018 63.2854L50.6367 63.1846L50.578 63.0761L50.5259 62.9603L50.4798 62.838L50.4396 62.7094L50.405 62.5752L50.3758 62.4358L50.3516 62.2917L50.3324 62.1435L50.3177 61.9916L50.3074 61.8364L50.3012 61.6787L50.299 61.5189L50.3003 61.3574L50.305 61.1947L50.3127 61.0314L50.3233 60.868L50.3367 60.705L50.3523 60.5427L50.37 60.3819L50.3896 60.2231L50.4108 60.0665L50.4334 59.9128L50.457 59.7626L50.4816 59.6163L50.5068 59.4744L50.5322 59.3374L50.5578 59.2058L50.5833 59.08L50.6084 58.9607L50.6328 58.8483L50.6563 58.7435Z" fill="#E9CD78"/>
<path fill-rule="evenodd" clip-rule="evenodd" d="M56.1949 65.1376L107.221 113.142L107.213 113.199L107.191 113.233L107.155 113.247L107.106 113.244L107.045 113.227L106.973 113.199L106.89 113.164L106.797 113.123L106.696 113.081L106.587 113.04L106.47 113.004L106.348 112.975L106.219 112.957L106.087 112.952L105.95 112.964L105.81 112.996L54.7841 64.9921L54.9239 64.9601L55.0606 64.9481L55.1936 64.9526L55.3219 64.971L55.4445 64.9998L55.561 65.0362L55.6703 65.077L55.7715 65.1192L55.8639 65.1598L55.9468 65.1955L56.0192 65.2234L56.0802 65.2404L56.1292 65.2433L56.1651 65.2293L56.1872 65.195L56.1949 65.1376Z" fill="#E9CD78"/>
<path fill-rule="evenodd" clip-rule="evenodd" d="M54.7846 64.9918L105.811 112.996H105.781L105.748 112.996L105.712 112.995L105.672 112.995L105.629 112.994L105.584 112.994L105.536 112.993L105.485 112.992L54.4586 64.9885L54.5096 64.9891L54.5578 64.9897L54.6034 64.9904L54.6459 64.9907L54.6856 64.9913L54.7221 64.9915L54.7551 64.9918H54.7846Z" fill="#E9CD78"/>
<path fill-rule="evenodd" clip-rule="evenodd" d="M54.4588 64.9887L105.485 112.993L105.443 112.992L105.4 112.991L105.355 112.991L105.309 112.99L105.261 112.99L105.213 112.989L105.163 112.989L105.112 112.988L105.061 112.988L105.008 112.987L104.955 112.987L104.901 112.986L104.846 112.986L104.79 112.986L104.734 112.986H104.678L53.6517 64.9818L53.7082 64.9819L53.7643 64.9821L53.8198 64.9823L53.8746 64.9826L53.9288 64.9828L53.9823 64.9832L54.0349 64.9837L54.0866 64.9842L54.1373 64.9847L54.187 64.9852L54.2355 64.9857L54.2828 64.9864L54.3289 64.987L54.3737 64.9875L54.4171 64.988L54.4588 64.9887Z" fill="#E9CD78"/>
<path fill-rule="evenodd" clip-rule="evenodd" d="M53.6515 64.9818L104.677 112.986L104.556 112.986L104.441 112.987L104.332 112.988L104.228 112.989L104.13 112.991L104.038 112.993L103.95 112.995L103.868 112.998L103.791 113.001L103.718 113.004L103.65 113.008L103.587 113.011L103.528 113.015L103.473 113.019L103.422 113.023L103.375 113.027L52.349 65.0234L52.396 65.0192L52.4468 65.0153L52.5017 65.0114L52.5609 65.0075L52.6242 65.0039L52.6921 65.0006L52.7648 64.9973L52.8421 64.9944L52.9243 64.9916L53.0116 64.9892L53.1044 64.987L53.2023 64.9852L53.306 64.9838L53.4153 64.9827L53.5304 64.9821L53.6515 64.9818Z" fill="#E9CD78"/>
<path fill-rule="evenodd" clip-rule="evenodd" d="M53.0764 65.1261L104.102 113.13L104.118 113.146L104.136 113.167L104.156 113.193L104.176 113.222L104.199 113.256L104.222 113.294L104.247 113.335L53.2206 65.3309L53.1962 65.2899L53.1728 65.2524L53.1505 65.2186L53.1296 65.1886L53.1102 65.163L53.0923 65.1421L53.0764 65.1261Z" fill="#E9CD78"/>
<path fill-rule="evenodd" clip-rule="evenodd" d="M54.22 65.9464L105.246 113.95L105.348 114.045L105.441 114.139L105.524 114.229L105.593 114.314L105.649 114.393L105.687 114.464L105.708 114.524L54.6818 66.5198L54.6615 66.4597L54.6228 66.3893L54.5677 66.3104L54.4979 66.225L54.4152 66.1346L54.322 66.0412L54.22 65.9464Z" fill="#E9CD78"/>
<path fill-rule="evenodd" clip-rule="evenodd" d="M54.6816 66.5196L105.708 114.524L105.706 114.547L105.689 114.554L105.659 114.548L105.617 114.531L105.566 114.504L105.507 114.47L105.441 114.432L105.371 114.39L105.298 114.348L105.224 114.308L105.151 114.272L105.079 114.241L105.012 114.219L104.95 114.207L104.896 114.207L104.851 114.223L53.8251 66.2188L53.8702 66.2036L53.9244 66.2031L53.9861 66.2151L54.0535 66.2374L54.1248 66.2679L54.1984 66.3042L54.2725 66.3446L54.3455 66.3864L54.4155 66.4277L54.4811 66.4663L54.5403 66.5L54.5914 66.5267L54.6329 66.5442L54.6629 66.5503L54.6796 66.5428L54.6816 66.5196Z" fill="#E9CD78"/>
<path fill-rule="evenodd" clip-rule="evenodd" d="M53.8253 66.2188L104.851 114.223L104.836 114.231L104.82 114.239L104.803 114.246L104.785 114.254L104.765 114.26L104.744 114.267L104.72 114.272L104.695 114.278L53.6688 66.274L53.6942 66.2686L53.7176 66.2627L53.739 66.2564L53.7588 66.2497L53.7773 66.2425L53.7943 66.2348L53.8102 66.227L53.8253 66.2188Z" fill="#E9CD78"/>
<path fill-rule="evenodd" clip-rule="evenodd" d="M53.6688 66.2742L104.695 114.278L104.706 114.31L104.717 114.34L104.726 114.367L104.733 114.392L104.739 114.414L104.743 114.433L104.746 114.45L104.747 114.463L53.7208 66.459L53.7199 66.4458L53.7173 66.4295L53.713 66.4101L53.707 66.388L53.6995 66.3631L53.6907 66.3358L53.6803 66.3061L53.6688 66.2742Z" fill="#E9CD78"/>
<path fill-rule="evenodd" clip-rule="evenodd" d="M45.4654 59.7191L96.4913 107.723L96.4505 107.723L45.4246 59.7193L45.4654 59.7191Z" fill="#E9CD78"/>
<path fill-rule="evenodd" clip-rule="evenodd" d="M45.4247 59.7194L96.4507 107.723L95.9693 107.703L95.4798 107.644L94.9841 107.547L94.4836 107.414L93.9803 107.247L93.4757 107.047L92.9715 106.816L92.4694 106.555L91.9712 106.267L91.4785 105.953L90.9929 105.614L90.5164 105.252L90.0504 104.868L39.0244 56.8643L39.4904 57.2477L39.9671 57.6097L40.4525 57.9487L40.9452 58.2631L41.4435 58.5514L41.9456 58.8119L42.4498 59.0429L42.9545 59.2428L43.4578 59.41L43.9582 59.543L44.4539 59.6399L44.9433 59.6992L45.4247 59.7194Z" fill="#E9CD78"/>
<path fill-rule="evenodd" clip-rule="evenodd" d="M51.8978 66.3027L102.924 114.307L102.88 114.306L102.834 114.305L102.787 114.305L102.739 114.304L102.689 114.304L102.638 114.303L102.586 114.303L102.533 114.302L102.479 114.302L102.423 114.301L102.367 114.301L102.31 114.3L102.253 114.3L102.195 114.3L102.136 114.3L102.076 114.3L51.0505 66.2956L51.1098 66.2957L51.1686 66.2958L51.2268 66.296L51.2845 66.2964L51.3414 66.2966L51.3974 66.2971L51.4527 66.2976L51.507 66.298L51.5602 66.2986L51.6124 66.2991L51.6633 66.2998L51.713 66.3004L51.7614 66.3009L51.8083 66.3016L51.8539 66.3022L51.8978 66.3027Z" fill="#E9CD78"/>
<path fill-rule="evenodd" clip-rule="evenodd" d="M51.051 66.2956L102.077 114.3L101.95 114.3L101.829 114.3L101.714 114.302L101.605 114.303L101.503 114.305L101.405 114.307L101.314 114.31L101.227 114.313L101.146 114.316L101.07 114.319L100.999 114.323L100.932 114.327L100.87 114.33L100.812 114.335L100.759 114.339L100.71 114.343L49.6838 66.3392L49.7332 66.3349L49.7865 66.3307L49.8442 66.3265L49.9062 66.3226L49.9728 66.3188L50.0441 66.3152L50.1202 66.3118L50.2013 66.3087L50.2877 66.3059L50.3795 66.3032L50.4767 66.301L50.5796 66.2991L50.6882 66.2976L50.8029 66.2965L50.9238 66.2958L51.051 66.2956Z" fill="#E9CD78"/>
<path fill-rule="evenodd" clip-rule="evenodd" d="M51.5292 67.2065L102.555 115.21L102.67 115.31L102.778 115.409L102.876 115.508L102.963 115.603L103.037 115.693L103.096 115.776L103.136 115.85L103.158 115.914L52.1318 67.91L52.1104 67.8466L52.0696 67.7724L52.0112 67.6894L51.9375 67.5992L51.8505 67.504L51.7519 67.4055L51.6443 67.3057L51.5292 67.2065Z" fill="#E9CD78"/>
<path fill-rule="evenodd" clip-rule="evenodd" d="M52.1329 67.91L103.159 115.914L103.157 115.938L103.139 115.946L103.108 115.94L103.064 115.921L103.01 115.893L102.948 115.858L102.88 115.817L102.806 115.774L102.729 115.73L102.652 115.688L102.574 115.65L102.499 115.618L102.429 115.594L102.364 115.582L102.307 115.582L102.26 115.598L51.2338 67.5941L51.2812 67.5782L51.3381 67.5777L51.4029 67.5903L51.4735 67.6137L51.5484 67.6457L51.6257 67.6839L51.7034 67.7262L51.78 67.77L51.8537 67.8134L51.9223 67.854L51.9844 67.8893L52.0382 67.9175L52.0817 67.9357L52.1131 67.9422L52.1308 67.9343L52.1329 67.91Z" fill="#E9CD78"/>
<path fill-rule="evenodd" clip-rule="evenodd" d="M51.2328 67.5941L102.259 115.598L102.224 115.616L102.183 115.633L102.135 115.647L102.077 115.659L102.008 115.669L101.926 115.676L101.828 115.681L101.713 115.683L50.6868 67.6786L50.8019 67.6771L50.8996 67.6725L50.982 67.6652L51.0512 67.6554L51.1087 67.6431L51.157 67.6288L51.1977 67.6123L51.2328 67.5941Z" fill="#E9CD78"/>
<path fill-rule="evenodd" clip-rule="evenodd" d="M44.9496 64.6443L95.9755 112.648L95.9189 112.664L95.8623 112.681L95.8059 112.7L95.7497 112.719L95.6938 112.739L95.6381 112.76L95.583 112.781L95.5283 112.803L95.4741 112.825L95.4206 112.848L95.3676 112.871L95.3153 112.894L95.264 112.916L95.2134 112.939L95.1639 112.962L95.1151 112.984L44.0891 64.9798L44.1379 64.9576L44.1875 64.9352L44.238 64.9125L44.2895 64.8895L44.3417 64.8667L44.3946 64.8438L44.4481 64.8212L44.5023 64.7989L44.557 64.7769L44.6121 64.7555L44.6678 64.7348L44.7237 64.7148L44.7799 64.6957L44.8364 64.6774L44.893 64.6603L44.9496 64.6443Z" fill="#E9CD78"/>
<path fill-rule="evenodd" clip-rule="evenodd" d="M50.687 67.6785L101.713 115.682L101.632 115.682L101.538 115.679L101.431 115.674L101.313 115.667L101.183 115.657L101.044 115.645L100.895 115.631L100.738 115.613L100.572 115.592L100.4 115.569L100.222 115.542L100.038 115.511L99.85 115.477L99.658 115.439L99.4631 115.397L99.266 115.351L99.0673 115.3L98.8683 115.246L98.6694 115.186L98.4714 115.122L98.2753 115.053L98.0819 114.979L97.8918 114.899L97.7059 114.815L97.5251 114.724L97.3499 114.628L97.1814 114.527L97.0202 114.419L96.8673 114.305L96.7233 114.184L45.6974 66.1803L45.8413 66.3008L45.9944 66.4148L46.1555 66.5226L46.324 66.6245L46.4991 66.7204L46.68 66.8107L46.8658 66.8955L47.056 66.9749L47.2493 67.0491L47.4456 67.118L47.6434 67.1822L47.8423 67.2416L48.0415 67.2964L48.24 67.3467L48.4372 67.3929L48.632 67.4349L48.8241 67.4729L49.0124 67.5071L49.196 67.5377L49.3743 67.5648L49.5464 67.5885L49.7117 67.6091L49.8691 67.6267L50.0178 67.6414L50.1575 67.6533L50.2868 67.6628L50.4052 67.6699L50.5119 67.6749L50.6061 67.6777L50.687 67.6785Z" fill="#E9CD78"/>
<path fill-rule="evenodd" clip-rule="evenodd" d="M44.0889 64.9798L95.1148 112.984L95.0735 113.002L95.0321 113.02L94.9908 113.038L94.9504 113.055L94.9108 113.072L94.8725 113.087L94.8359 113.102L94.8011 113.116L43.7751 65.1125L43.8099 65.0983L43.8466 65.0834L43.8848 65.0675L43.9245 65.0511L43.965 65.0342L44.0061 65.0165L44.0475 64.9984L44.0889 64.9798Z" fill="#E9CD78"/>
<path fill-rule="evenodd" clip-rule="evenodd" d="M43.7757 65.1124L94.8017 113.116L94.7634 113.125L94.7224 113.124L94.6796 113.115L94.6358 113.101L94.5921 113.086L94.5493 113.072L94.5083 113.061L94.4702 113.057L43.4442 65.0526L43.4824 65.0568L43.5233 65.0676L43.5662 65.0821L43.61 65.0975L43.6536 65.111L43.6966 65.1198L43.7376 65.1212L43.7757 65.1124Z" fill="#E9CD78"/>
<path fill-rule="evenodd" clip-rule="evenodd" d="M43.4432 65.0526L94.4692 113.057L94.4201 113.067L94.3736 113.095L94.3294 113.138L94.2876 113.194L94.2483 113.259L94.2112 113.33L94.1763 113.404L94.1437 113.478L94.1133 113.55L94.085 113.616L94.0587 113.673L94.0347 113.718L94.0125 113.749L93.9925 113.762L93.9743 113.754L42.9484 65.7501L42.9666 65.7579L42.9866 65.7451L43.0087 65.7145L43.0327 65.6691L43.059 65.612L43.0873 65.5461L43.1178 65.4745L43.1504 65.4L43.1853 65.3259L43.2223 65.2549L43.2618 65.1901L43.3036 65.1344L43.3477 65.0911L43.3942 65.0628L43.4432 65.0526Z" fill="#E9CD78"/>
<path fill-rule="evenodd" clip-rule="evenodd" d="M53.7204 66.4589L104.746 114.463L104.738 114.523L104.715 114.559L104.677 114.574L104.626 114.571L104.562 114.553L104.486 114.524L104.399 114.486L104.302 114.444L104.196 114.399L104.081 114.356L103.959 114.318L103.83 114.288L103.695 114.269L103.556 114.264L103.412 114.277L103.266 114.31L52.2396 66.3061L52.3864 66.2727L52.5299 66.2599L52.6694 66.2648L52.804 66.2839L52.9329 66.3142L53.0551 66.3524L53.1698 66.3954L53.2761 66.4396L53.3731 66.4822L53.4601 66.5196L53.5361 66.5489L53.6001 66.5668L53.6514 66.57L53.6892 66.5551L53.7125 66.5193L53.7204 66.4589Z" fill="#E9CD78"/>
<path fill-rule="evenodd" clip-rule="evenodd" d="M52.2394 66.3062L103.265 114.31H103.234L103.2 114.31L103.161 114.31L103.12 114.309L103.075 114.309L103.027 114.308L102.977 114.307L102.923 114.307L51.8972 66.3026L51.9506 66.3034L52.0013 66.304L52.0491 66.3046L52.0938 66.3051L52.1353 66.3055L52.1736 66.3059L52.2083 66.3062H52.2394Z" fill="#E9CD78"/>
<path fill-rule="evenodd" clip-rule="evenodd" d="M55.5967 63.8838L106.623 111.888L106.659 111.934L106.702 111.997L106.749 112.075L106.799 112.165L106.852 112.263L106.905 112.368L106.958 112.476L107.01 112.585L107.058 112.692L107.103 112.795L107.142 112.89L107.175 112.975L107.2 113.047L107.215 113.103L107.221 113.141L56.1952 65.1373L56.1895 65.0992L56.1737 65.0426L56.1488 64.9706L56.1162 64.8857L56.077 64.7906L56.0324 64.6881L55.9837 64.581L55.9324 64.472L55.8793 64.3637L55.8258 64.259L55.7732 64.1606L55.7228 64.0711L55.6758 63.9934L55.6333 63.93L55.5967 63.8838Z" fill="#E9CD78"/>
<path fill-rule="evenodd" clip-rule="evenodd" d="M32.7116 41.2714L83.7376 89.2753L83.571 89.1594L83.4116 89.0387L83.259 88.9136L83.1132 88.784L32.0873 40.7801L32.2331 40.9095L32.3857 41.0348L32.5451 41.1554L32.7116 41.2714Z" fill="#E9CD78"/>
<path fill-rule="evenodd" clip-rule="evenodd" d="M56.6251 54.1949L107.651 102.199L107.508 102.309L107.36 102.426L107.207 102.547L107.051 102.673L106.89 102.804L106.725 102.939L106.557 103.078L106.385 103.22L106.209 103.365L106.03 103.513L105.849 103.663L105.664 103.816L105.477 103.97L105.288 104.125L105.096 104.282L104.903 104.439L104.707 104.596L104.51 104.753L104.311 104.91L104.111 105.066L103.91 105.221L103.708 105.374L103.506 105.526L103.302 105.675L103.099 105.822L102.895 105.965L102.692 106.106L102.489 106.243L102.286 106.376L102.083 106.504L101.882 106.628L101.681 106.747L50.6555 58.7434L50.8559 58.6245L51.0574 58.5005L51.2597 58.3718L51.4626 58.2389L51.666 58.102L51.8695 57.9614L52.0731 57.8176L52.2766 57.671L52.4797 57.5216L52.6824 57.3702L52.8843 57.2169L53.0853 57.062L53.2853 56.9061L53.484 56.7492L53.6811 56.5921L53.8767 56.4348L54.0703 56.2777L54.262 56.1214L54.4515 55.966L54.6385 55.8119L54.8229 55.6594L55.0045 55.509L55.1831 55.3611L55.3586 55.2158L55.5307 55.0737L55.6991 54.935L55.8639 54.8001L56.0249 54.6692L56.1816 54.5431L56.3339 54.4216L56.4818 54.3055L56.6251 54.1949Z" fill="#E9CD78"/>
<path fill-rule="evenodd" clip-rule="evenodd" d="M39.8612 35.2485L90.887 83.2524L91.0186 83.4971L91.1591 83.7318L91.3082 83.9566L91.4653 84.1718L91.6301 84.3776L91.8021 84.574L91.9808 84.7613L92.1658 84.9394L41.1399 36.9353L40.9548 36.7573L40.7761 36.5701L40.6042 36.3737L40.4394 36.1679L40.2822 35.9526L40.1332 35.7278L39.9927 35.493L39.8612 35.2485Z" fill="#E9CD78"/>
<path fill-rule="evenodd" clip-rule="evenodd" d="M63.7128 44.1565L114.739 92.1604L114.748 92.5078L114.732 92.8561L114.693 93.2049L114.631 93.5541L114.548 93.9031L114.444 94.2518L114.32 94.5998L114.177 94.9469L114.017 95.2928L113.839 95.6371L113.646 95.9794L113.438 96.3197L113.216 96.6575L112.981 96.9924L112.735 97.3244L112.477 97.6529L112.209 97.9777L111.932 98.2985L111.647 98.6149L111.355 98.9268L111.057 99.2337L110.754 99.5355L110.446 99.8318L110.136 100.122L109.823 100.406L109.508 100.684L109.194 100.955L108.88 101.219L108.568 101.476L108.258 101.725L107.953 101.966L107.651 102.199L56.6252 54.195L56.9266 53.9621L57.2325 53.7211L57.5421 53.4721L57.8542 53.2154L58.168 52.9514L58.4824 52.6804L58.7967 52.4024L59.1097 52.1182L59.4204 51.8279L59.7278 51.5316L60.0312 51.2298L60.3293 50.9229L60.6213 50.611L60.9063 50.2945L61.1832 49.9736L61.4509 49.6489L61.7087 49.3204L61.9555 48.9885L62.1904 48.6536L62.4124 48.3158L62.6203 47.9755L62.8134 47.6331L62.9908 47.2889L63.1513 46.943L63.2939 46.5959L63.4178 46.2478L63.522 45.8992L63.6054 45.55L63.6673 45.201L63.7064 44.8522L63.7219 44.5039L63.7128 44.1565Z" fill="#E9CD78"/>
<path fill-rule="evenodd" clip-rule="evenodd" d="M54.6271 24.4182L105.653 72.4221L105.536 72.3061L105.427 72.1963L105.325 72.0926L105.232 71.9947L54.2058 23.9908L54.2995 24.0887L54.4007 24.1924L54.5098 24.3022L54.6271 24.4182Z" fill="#E9CD78"/>
<path fill-rule="evenodd" clip-rule="evenodd" d="M56.881 20.9415L107.907 68.9454L107.952 69.0002L107.995 69.0612L108.038 69.1281L108.081 69.2006L108.124 69.2789L108.168 69.3622L108.212 69.4505L108.258 69.5436L108.306 69.6412L57.2797 21.6373L57.2322 21.5397L57.1864 21.4466L57.1419 21.3582L57.0982 21.2749L57.0552 21.1967L57.0124 21.1241L56.9693 21.0571L56.9256 20.9963L56.881 20.9415Z" fill="#E9CD78"/>
<path fill-rule="evenodd" clip-rule="evenodd" d="M57.2802 21.6372L108.306 69.6411L108.317 69.6637L108.328 69.687L108.34 69.711L108.352 69.7355L108.364 69.7607L108.377 69.7859L108.39 69.8112L108.402 69.8367L57.3762 21.8328L57.3636 21.8073L57.3509 21.782L57.3385 21.7567L57.3261 21.7316L57.3141 21.707L57.3024 21.6831L57.2911 21.6597L57.2802 21.6372Z" fill="#E9CD78"/>
<path fill-rule="evenodd" clip-rule="evenodd" d="M58.6143 20.7754L109.64 68.7793L109.684 68.8434L109.721 68.9155L109.751 68.9947L109.775 69.0799L109.794 69.1705L109.808 69.2649L109.818 69.3627L109.826 69.4627L109.831 69.5639L109.835 69.6653L109.838 69.7661L58.8121 21.7622L58.8091 21.6614L58.8054 21.56L58.8001 21.4588L58.7926 21.3588L58.7819 21.261L58.7676 21.1666L58.7489 21.076L58.7249 20.9908L58.6948 20.9116L58.6583 20.8394L58.6143 20.7754Z" fill="#E9CD78"/>
<path fill-rule="evenodd" clip-rule="evenodd" d="M58.8131 21.7621L109.839 69.7661L109.844 69.9093L58.8178 21.9054L58.8131 21.7621Z" fill="#E9CD78"/>
<path fill-rule="evenodd" clip-rule="evenodd" d="M60.1613 21.4734L111.187 69.4774L111.21 69.506L111.23 69.5371L111.247 69.5703L111.261 69.6054L60.235 21.6015L60.2214 21.5663L60.2045 21.5332L60.1844 21.5021L60.1613 21.4734Z" fill="#E9CD78"/>
<path fill-rule="evenodd" clip-rule="evenodd" d="M60.2349 21.6017L111.261 69.6057L111.267 69.6242L111.273 69.647L111.277 69.675L111.28 69.7093L111.28 69.7508L111.275 69.8004L111.266 69.8592L111.249 69.9282L111.226 70.0082L111.194 70.1004L111.153 70.2056L111.101 70.3248L111.037 70.4591L110.961 70.6093L110.871 70.7765L110.767 70.9616L59.7407 22.9577L59.8453 22.7726L59.9352 22.6054L60.0113 22.4551L60.0748 22.3209L60.1267 22.2016L60.1682 22.0963L60.2 22.0043L60.2236 21.9243L60.2396 21.8553L60.2495 21.7965L60.254 21.7468L60.2543 21.7053L60.2515 21.6711L60.2466 21.6431L60.2407 21.6203L60.2349 21.6017Z" fill="#E9CD78"/>
<path fill-rule="evenodd" clip-rule="evenodd" d="M59.7407 22.9577L110.767 70.9616L110.775 70.9717L110.783 70.982L59.763 22.9851L59.7545 22.9747L59.7407 22.9577Z" fill="#E9CD78"/>
<path fill-rule="evenodd" clip-rule="evenodd" d="M59.7635 22.9851L110.79 70.989L110.839 71.051L110.892 71.1196L110.948 71.1939L111.007 71.2734L111.067 71.3576L111.127 71.4457L111.187 71.5371L111.246 71.6312L111.303 71.7273L111.356 71.8248L111.407 71.923L111.453 72.0215L111.493 72.1195L111.527 72.2163L111.554 72.3114L111.574 72.404L60.5479 24.4001L60.5286 24.3074L60.5014 24.2123L60.4672 24.1155L60.4267 24.0176L60.3809 23.9191L60.3306 23.8208L60.2766 23.7232L60.2199 23.6272L60.161 23.533L60.101 23.4418L60.0408 23.3536L59.9809 23.2695L59.9224 23.19L59.8662 23.1155L59.8129 23.0471L59.7635 22.9851Z" fill="#E9CD78"/>
<path fill-rule="evenodd" clip-rule="evenodd" d="M60.5477 24.4001L111.574 72.404L111.576 72.418L111.578 72.4317L111.58 72.4454L111.581 72.4591L111.583 72.4726L111.584 72.4861L111.585 72.4994L111.585 72.5127L60.5595 24.5088L60.5588 24.4955L60.5578 24.482L60.5566 24.4687L60.5553 24.455L60.5537 24.4414L60.5519 24.4278L60.5499 24.4139L60.5477 24.4001Z" fill="#E9CD78"/>
<path fill-rule="evenodd" clip-rule="evenodd" d="M60.5591 24.5087L111.585 72.5126L111.603 72.5421L60.577 24.5381L60.5591 24.5087Z" fill="#E9CD78"/>
<path fill-rule="evenodd" clip-rule="evenodd" d="M63.1532 26.1824L114.179 74.1865L114.223 74.2339L114.264 74.2815L114.303 74.3292L114.34 74.377L114.375 74.4247L114.407 74.4726L63.3814 26.4686L63.3492 26.4208L63.3145 26.3731L63.2775 26.3253L63.2381 26.2775L63.1967 26.2299L63.1532 26.1824Z" fill="#E9CD78"/>
<path fill-rule="evenodd" clip-rule="evenodd" d="M63.3812 26.4687L114.407 74.4728L114.373 74.4853L114.331 74.4962L114.282 74.5059L114.226 74.514L114.164 74.5207L114.097 74.5261L114.024 74.5303L113.946 74.5334L113.864 74.5354L113.778 74.5362H113.689L113.597 74.5352L113.502 74.5332L113.406 74.5305L113.308 74.527L113.209 74.523L113.11 74.5182L113.01 74.5128L112.911 74.5071L112.813 74.5008L112.716 74.4942L112.621 74.4872L112.529 74.4801L112.439 74.4728L112.353 74.4653L112.27 74.4577L112.191 74.4501L112.118 74.4426L112.049 74.4351L111.986 74.428L111.929 74.4209L111.879 74.4143L60.8531 26.4103L60.9033 26.417L60.9602 26.424L61.0231 26.4312L61.0917 26.4387L61.1654 26.4462L61.244 26.4538L61.3267 26.4612L61.4131 26.4687L61.5029 26.4762L61.5954 26.4833L61.6903 26.4903L61.7871 26.4969L61.8852 26.5031L61.9842 26.5089L62.0837 26.5142L62.1832 26.5191L62.2821 26.5231L62.3799 26.5265L62.4764 26.5293L62.5709 26.5312L62.6631 26.5321L62.7523 26.5322L62.8381 26.5315L62.9201 26.5295L62.9978 26.5264L63.0709 26.5222L63.1384 26.5168L63.2004 26.5101L63.2562 26.5019L63.3052 26.4923L63.347 26.4814L63.3812 26.4687Z" fill="#E9CD78"/>
<path fill-rule="evenodd" clip-rule="evenodd" d="M60.8531 26.4103L111.879 74.4143L111.882 74.429L111.886 74.4439L60.8598 26.4399L60.8564 26.4251L60.8531 26.4103Z" fill="#E9CD78"/>
<path fill-rule="evenodd" clip-rule="evenodd" d="M60.8604 26.44L111.886 74.444L111.889 74.4578L111.892 74.4717L60.8663 26.4677L60.8633 26.4539L60.8604 26.44Z" fill="#E9CD78"/>
<path fill-rule="evenodd" clip-rule="evenodd" d="M60.8651 26.4674L111.891 74.4715L111.902 74.5265L111.914 74.5834L111.924 74.642L111.934 74.7022L111.944 74.7638L111.952 74.8269L111.96 74.8911L111.967 74.9564L111.973 75.0227L111.977 75.0899L111.981 75.158L111.983 75.2266L111.983 75.2956L111.982 75.3651L111.979 75.4348L111.974 75.5047L111.968 75.5745L111.96 75.6442L111.949 75.7138L111.936 75.7829L111.921 75.8518L111.904 75.9199L111.884 75.9873L111.862 76.0539L111.837 76.1197L111.809 76.1842L111.778 76.2476L111.744 76.3096L111.707 76.3703L111.667 76.4294L111.623 76.4868L111.576 76.5425L60.5505 28.5385L60.5974 28.4829L60.641 28.4255L60.681 28.3664L60.7181 28.3057L60.7519 28.2437L60.7827 28.1803L60.8106 28.1156L60.8358 28.05L60.8582 27.9834L60.8782 27.9159L60.8955 27.8477L60.9105 27.779L60.9232 27.7099L60.9337 27.6403L60.9422 27.5706L60.9486 27.5007L60.9531 27.4309L60.9559 27.3611L60.9571 27.2917L60.9566 27.2226L60.9546 27.154L60.9513 27.086L60.9467 27.0188L60.941 26.9525L60.9342 26.8872L60.9264 26.8229L60.9178 26.7599L60.9083 26.6983L60.8982 26.6381L60.8877 26.5795L60.8765 26.5226L60.8651 26.4674Z" fill="#E9CD78"/>
<path fill-rule="evenodd" clip-rule="evenodd" d="M60.5512 28.5384L111.577 76.5424L111.513 76.6101L111.448 76.6734L111.384 76.7324L111.319 76.787L111.255 76.8372L111.191 76.8831L111.126 76.9247L111.062 76.9618L110.997 76.9947L110.933 77.0231L110.869 77.0472L110.805 77.0669L110.741 77.0823L110.677 77.0932L110.613 77.0998L110.549 77.1019L59.5234 29.098L59.5872 29.0959L59.6511 29.0893L59.7151 29.0782L59.7791 29.0629L59.8432 29.0432L59.9074 29.0192L59.9717 28.9908L60.036 28.9579L60.1002 28.9206L60.1647 28.8792L60.2291 28.8333L60.2935 28.7831L60.3579 28.7284L60.4225 28.6695L60.4869 28.6061L60.5512 28.5384Z" fill="#E9CD78"/>
<path fill-rule="evenodd" clip-rule="evenodd" d="M59.5231 29.0982L110.549 77.1021L110.518 77.1016L110.487 77.0999L110.457 77.0971L110.427 77.0933L110.397 77.0884L110.367 77.0824L110.338 77.0753L110.309 77.0673L59.2833 29.0633L59.3122 29.0714L59.3414 29.0785L59.3709 29.0845L59.4008 29.0894L59.431 29.0931L59.4615 29.096L59.4922 29.0977L59.5231 29.0982Z" fill="#E9CD78"/>
<path fill-rule="evenodd" clip-rule="evenodd" d="M59.2833 29.0633L110.309 77.0673L110.31 77.0803L59.2844 29.0842L59.2833 29.0633Z" fill="#E9CD78"/>
<path fill-rule="evenodd" clip-rule="evenodd" d="M59.2848 29.0844L110.311 77.0883L110.312 77.1034L110.312 77.1184L59.2869 29.1245L59.2861 29.1095L59.2848 29.0844Z" fill="#E9CD78"/>
<path fill-rule="evenodd" clip-rule="evenodd" d="M59.2861 29.1245L110.312 77.1285L110.335 77.4194L110.368 77.7192L110.412 78.0265L110.466 78.3402L110.529 78.6593L110.599 78.9824L110.677 79.3083L110.761 79.6359L110.851 79.9643L110.946 80.2919L111.045 80.6179L111.148 80.9409L111.253 81.2598L111.361 81.5733L111.469 81.8805L111.578 82.18L111.686 82.4708L111.792 82.7515L111.897 83.0212L112 83.2786L112.098 83.5225L112.192 83.7517L112.282 83.9652L112.365 84.1616L112.442 84.34L112.511 84.499L112.572 84.6376L112.624 84.7543L112.667 84.8484L112.699 84.9185L112.719 84.9634L112.728 84.9819L61.7022 36.978L61.6935 36.9595L61.6728 36.9146L61.6409 36.8445L61.5984 36.7504L61.5463 36.6337L61.4851 36.4951L61.4158 36.3361L61.3392 36.1577L61.2557 35.9612L61.1667 35.7478L61.0723 35.5186L60.9737 35.2747L60.8715 35.0173L60.7665 34.7476L60.6597 34.4668L60.5516 34.1761L60.443 33.8766L60.3347 33.5694L60.2275 33.2559L60.1222 32.9369L60.0195 32.614L59.9203 32.288L59.8253 31.9604L59.7353 31.632L59.6509 31.3044L59.5731 30.9783L59.5026 30.6553L59.44 30.3363L59.3864 30.0225L59.3423 29.7152L59.3086 29.4155L59.2861 29.1245Z" fill="#E9CD78"/>
<path fill-rule="evenodd" clip-rule="evenodd" d="M61.7028 36.978L112.729 84.9819L112.99 85.5973L61.9639 37.5934L61.7028 36.978Z" fill="#E9CD78"/>
<path fill-rule="evenodd" clip-rule="evenodd" d="M61.964 37.5933C62.0328 37.7735 63.5658 41.803 63.7127 44.1565C63.9443 47.8561 59.812 51.7569 56.6251 54.1949C55.1234 55.3438 52.7878 57.503 50.6556 58.7434C50.4102 59.8213 49.9697 62.2528 50.7011 63.2854C50.9708 63.5285 51.6734 63.8098 53.4782 63.8098C53.9422 63.8098 54.3772 63.7917 54.695 63.7784C54.8954 63.7701 55.0556 63.7635 55.1594 63.7635C55.3284 63.7635 55.4618 63.7943 55.5674 63.8577C55.7038 63.9398 56.1954 64.9874 56.1954 65.1375C56.1954 65.5112 55.5367 64.7634 54.7846 64.9919C54.7105 64.9919 54.5977 64.9904 54.4586 64.9886C54.2396 64.9858 53.9538 64.9818 53.6514 64.9818C52.989 64.9818 52.5894 65.0012 52.349 65.0233C52.3485 65.0231 52.3495 65.0236 52.349 65.0233C52.4652 65.019 52.5626 65.0167 52.6335 65.0167C52.8108 65.0167 52.9509 65.0491 53.0617 65.1156C53.0966 65.1367 53.1537 65.2179 53.2201 65.331C53.7021 65.426 54.6265 66.2297 54.6819 66.5197C54.7141 66.6894 54.0388 66.0951 53.8253 66.2189C53.7863 66.2414 53.7395 66.2603 53.6688 66.2742C53.7013 66.3619 53.7209 66.4282 53.7209 66.4589C53.7209 66.8512 53.0296 66.0663 52.2401 66.3062C52.1622 66.3062 52.0438 66.3046 51.8978 66.3026C51.668 66.2997 51.368 66.2955 51.0506 66.2955C50.3553 66.2955 49.9359 66.3158 49.6834 66.3392C49.935 66.4671 50.303 66.6065 50.5925 66.6611C51.0969 66.7558 52.0738 67.6044 52.1322 67.9099C52.166 68.0879 51.4572 67.4641 51.233 67.5941C51.145 67.6448 51.0186 67.6786 50.687 67.6786C49.8988 67.6786 46.6991 67.3801 45.4397 65.9201C45.1082 65.5357 44.9442 65.1081 44.9493 64.6442C44.6468 64.726 44.3457 64.8628 44.0888 64.9798C43.9788 65.0298 43.8648 65.0757 43.775 65.1125C43.6778 65.1524 43.5407 65.0528 43.4435 65.0528C43.1756 65.0528 43.0139 65.9557 42.9324 65.7187C42.8398 65.4493 43.0244 64.5286 43.3035 64.339C43.3532 64.3053 43.5472 64.373 43.6475 64.3074C44.236 63.9225 45.4422 62.9573 45.865 62.6973L45.4679 59.7415L45.4649 59.7192L45.424 59.7194C40.3383 59.7194 33.5914 52.7492 34.437 47.6984C34.3112 47.6148 34.2119 47.5108 34.1474 47.3827C34.1084 47.2676 34.1453 47.1469 34.2317 47.0682C33.2875 45.688 32.1519 43.0679 32.8322 41.5822C32.7293 41.5087 32.684 41.3861 32.7111 41.2712C30.8976 40.06 30.3012 38.0202 30.2802 36.054C30.2589 34.0637 30.4289 30.9315 33.2082 30.9315C35.352 30.9315 38.5051 32.5822 39.861 35.2486C41.2144 37.9111 44.1782 38.8558 46.3049 38.8556C46.8778 38.8556 47.382 38.7821 47.7244 38.6488C48.5018 38.3462 48.963 37.7838 49.3698 37.2872C49.7023 36.8814 50.02 36.4938 50.4577 36.3513C50.5484 32.292 51.5471 27.2334 54.6272 24.419C54.6269 24.4187 54.6274 24.4193 54.6272 24.419C53.3328 23.1467 53.4642 22.9802 53.6037 22.8055C53.6571 22.7383 53.7615 22.658 53.9529 22.658C54.1385 22.658 54.3877 22.7285 54.776 22.8448C54.8541 22.8681 54.9485 22.8964 55.0383 22.9217C55.0027 22.7885 54.9573 22.6373 54.9237 22.525C54.7267 21.8675 54.645 21.5954 54.8829 21.4255C54.9451 21.3814 55.0194 21.3583 55.0988 21.3583C55.2978 21.3583 55.4788 21.4904 55.9864 21.8995L56.088 21.9811C56.0335 21.3983 56.0015 20.9417 56.3429 20.7895C56.3962 20.7659 56.4521 20.7541 56.5104 20.7541C56.8509 20.7541 57.0214 21.1054 57.28 21.6373C57.3085 21.6961 57.3422 21.7652 57.3762 21.8329C57.424 21.7332 57.4727 21.6258 57.5126 21.5374C57.7834 20.939 57.9325 20.6094 58.2575 20.6094C58.7798 20.6232 58.7974 21.2283 58.8125 21.7622L58.8172 21.9054C58.8797 21.8634 58.9426 21.8196 58.996 21.7826C59.3974 21.5044 59.6355 21.347 59.8618 21.347C59.926 21.347 59.9864 21.3599 60.0415 21.3854C60.1346 21.4285 60.2035 21.5053 60.235 21.6016C60.2644 21.6908 60.34 21.9204 59.7408 22.9576C59.7481 22.9665 59.7555 22.9756 59.7631 22.985C60.0148 23.2972 60.4668 23.9133 60.5474 24.4C60.5536 24.4371 60.5575 24.4733 60.5591 24.5087C60.6184 24.655 61.2859 24.9701 61.6067 25.1214C62.2852 25.4418 63.051 25.959 63.3812 26.4687C63.0582 26.6111 61.3518 26.4797 60.853 26.4103C60.8553 26.42 60.8574 26.4299 60.8597 26.4399C60.8617 26.449 60.8637 26.4582 60.8657 26.4676C60.9893 27.0446 61.0694 27.9553 60.5511 28.5386C60.2077 28.911 59.8631 29.0981 59.5234 29.0981C59.4406 29.0981 59.36 29.0862 59.2836 29.0633C59.2839 29.0703 59.2843 29.0772 59.2847 29.0841C59.2853 29.0975 59.2861 29.111 59.2869 29.1244C59.4649 32.1773 61.6779 36.9245 61.7029 36.9779L61.964 37.5933Z" fill="#E9CD78"/>
</g>
<path fill-rule="evenodd" clip-rule="evenodd" d="M50.5994 67.3238C49.7399 66.1103 50.2696 63.2385 50.554 62C49.6548 62.0024 48.743 62.0239 47.8407 62.0262L48.2814 65.3066C47.8122 65.5951 46.4735 66.6663 45.8204 67.0935C45.7091 67.1663 45.4938 67.0912 45.4387 67.1286C45.1289 67.339 44.9241 68.3608 45.0267 68.6598C45.1172 68.9228 45.2967 67.9208 45.594 67.9208C45.7018 67.9208 45.854 68.0313 45.9619 67.987C46.0616 67.9462 46.188 67.8952 46.3101 67.8397C46.5954 67.7099 46.9294 67.558 47.2652 67.4673C47.2595 67.9822 47.4415 68.4567 47.8094 68.8832C49.2071 70.5037 52.7582 70.8349 53.6329 70.8349C54.001 70.8349 54.1412 70.7974 54.2389 70.7411C54.4877 70.5969 55.2744 71.2892 55.2368 71.0916C55.1721 70.7526 54.0879 69.8108 53.5281 69.7057C53.2068 69.6452 52.7983 69.4904 52.5192 69.3484C52.7993 69.3226 53.2648 69.3 54.0364 69.3C54.3887 69.3 54.7217 69.3046 54.9767 69.3078C55.1387 69.31 55.2702 69.3118 55.3566 69.3118C56.2327 69.0455 57 69.9166 57 69.4813C57 69.3064 56.4274 68.0861 56.2684 67.9905C56.1454 67.9166 55.99 67.8807 55.7931 67.8807C55.6722 67.8807 55.4856 67.8884 55.2521 67.898C54.8819 67.9136 54.3752 67.9346 53.8346 67.9346C51.7322 67.9346 50.9137 67.607 50.5994 67.3238Z" fill="#E9E9E8"/>
<path d="M48.8503 75.9268C47.8134 75.9268 43.6036 75.5342 41.9467 73.6133C41.5105 73.1076 41.2948 72.545 41.3015 71.9347C40.9035 72.0423 40.5074 72.2223 40.1694 72.3761C40.0246 72.442 39.8747 72.5024 39.7565 72.5508C39.6286 72.6032 39.4482 72.4722 39.3203 72.4722C38.9679 72.4722 38.7551 73.6601 38.648 73.3483C38.5261 72.9939 38.7689 71.7826 39.1362 71.5331C39.2016 71.4888 39.4568 71.5778 39.5888 71.4916C40.363 70.9851 41.9499 69.7152 42.5062 69.3731L41.9798 65.455C41.9618 65.4553 41.9439 65.4553 41.926 65.4553C35.1123 65.4553 26.0322 55.9457 27.5423 49.277C26.2129 47.5959 24.2396 43.4359 25.481 41.3618C22.8754 39.7956 22.0307 37.0056 22.002 34.3199C21.9739 31.7013 22.1976 27.5803 25.8542 27.5803C28.6747 27.5803 32.8232 29.7521 34.607 33.2602C36.3876 36.7632 40.287 38.006 43.0849 38.0057C43.8387 38.0057 44.5021 37.909 44.9526 37.7336C45.9753 37.3356 46.5822 36.5956 47.1174 35.9423C47.5548 35.4084 47.9728 34.8985 48.5486 34.7109C48.6679 29.3703 49.9819 22.7149 54.0342 19.0122C52.3301 17.3372 52.5041 17.1193 52.6877 16.8893C52.7579 16.8009 52.8953 16.6953 53.1471 16.6953C53.3912 16.6953 53.7191 16.7881 54.2301 16.941C54.3328 16.9717 54.457 17.0089 54.5751 17.0422C54.5283 16.867 54.4685 16.668 54.4244 16.5203C54.1652 15.6553 54.0577 15.2973 54.3707 15.0738C54.4526 15.0157 54.5503 14.9853 54.6548 14.9853C54.9166 14.9853 55.1547 15.1592 55.8225 15.6973C55.864 15.7306 55.9093 15.7671 55.9562 15.8047C55.8844 15.038 55.8424 14.4372 56.2915 14.2369C56.3617 14.2059 56.4352 14.1904 56.5119 14.1904C56.9599 14.1904 57.1842 14.6526 57.5245 15.3524C57.562 15.4298 57.6062 15.5206 57.651 15.6097C57.7139 15.4786 57.778 15.3373 57.8304 15.221C58.1867 14.4337 58.3829 14 58.8104 14C59.4977 14.0182 59.5208 14.8143 59.5407 15.5167C59.5423 15.5736 59.5445 15.639 59.5468 15.7051C59.629 15.6499 59.7119 15.5922 59.782 15.5436C60.3102 15.1775 60.6234 14.9705 60.9211 14.9705C61.0057 14.9705 61.0852 14.9875 61.1576 15.0209C61.2801 15.0777 61.3707 15.1788 61.4122 15.3054C61.4509 15.4228 61.5504 15.7249 60.762 17.0895C61.11 17.5166 61.8083 18.4541 61.8386 19.1302L62.2253 21.632C62.3965 22.3851 62.533 23.6388 61.8281 24.4321C61.3763 24.9221 60.9229 25.1683 60.4759 25.1683C60.3671 25.1683 60.2611 25.1526 60.1605 25.1225C60.3599 29.1355 63.3103 35.4647 63.3434 35.5354L63.687 36.345C63.7776 36.582 65.7944 41.8835 65.9877 44.9798C66.2924 49.8473 60.8557 54.9794 56.6629 58.187C53.7695 60.4004 48.5238 65.4646 45.2106 65.4085C44.8763 66.8512 44.2248 70.3112 45.2542 71.7645C45.6268 72.1002 46.597 72.4886 49.0894 72.4886C49.7302 72.4886 50.331 72.4637 50.7699 72.4452C51.0466 72.4338 51.2678 72.4247 51.4112 72.4247C51.6446 72.4247 51.8288 72.4674 51.9746 72.5549C52.163 72.6682 52.8419 74.1149 52.8419 74.3222C52.8419 74.8383 51.9323 73.8056 50.8936 74.1212C50.7911 74.1212 50.6354 74.1192 50.4434 74.1165C50.141 74.1127 49.7463 74.1072 49.3287 74.1072C48.4139 74.1072 47.8621 74.1339 47.53 74.1646C47.8609 74.333 48.3451 74.5164 48.726 74.5882C49.3897 74.7128 50.6749 75.8292 50.7517 76.2312C50.7962 76.4654 49.8636 75.6447 49.5687 75.8156C49.4529 75.8824 49.2866 75.9268 48.8503 75.9268Z" fill="#88421E"/>
<path fill-rule="evenodd" clip-rule="evenodd" d="M53.4803 19.0888C54.1421 18.5454 55.866 17.2748 57.927 16.8885C59.4813 16.5974 60.1274 16.9811 60.3431 17.174C60.333 17.1614 60.323 17.1492 60.3133 17.1374C61.1139 15.7517 61.0129 15.4449 60.9736 15.3257C60.9315 15.1971 60.8396 15.0945 60.7151 15.0368C60.6415 15.0029 60.5608 14.9856 60.475 14.9856C60.1726 14.9856 59.8545 15.1959 59.3183 15.5676C59.2471 15.6169 59.1628 15.6755 59.0793 15.7315L59.0731 15.5402C59.0529 14.827 59.0294 14.0185 58.3316 14C57.8974 14 57.6982 14.4405 57.3365 15.24C57.2832 15.358 57.218 15.5015 57.1541 15.6347C57.1087 15.5442 57.0638 15.452 57.0256 15.3734C56.6801 14.6627 56.4524 14.1934 55.9974 14.1934C55.9195 14.1934 55.8448 14.2091 55.7736 14.2407C55.3176 14.444 55.3602 15.0541 55.4332 15.8328L55.2974 15.7236C54.6192 15.1772 54.3774 15.0007 54.1116 15.0007C54.0055 15.0007 53.9063 15.0315 53.8231 15.0905C53.5053 15.3174 53.6144 15.681 53.8776 16.5595C53.9224 16.7094 53.9831 16.9115 54.0308 17.0893C53.9107 17.0556 53.7846 17.0178 53.6803 16.9866C53.1614 16.8313 52.8285 16.7371 52.5805 16.7371C52.3248 16.7371 52.1853 16.8444 52.1141 16.9341C51.9276 17.1676 51.7511 17.3888 53.4803 19.0888Z" fill="#D50000"/>
<path d="M58 21C58.5523 21 59 20.5523 59 20C59 19.4477 58.5523 19 58 19C57.4477 19 57 19.4477 57 20C57 20.5523 57.4477 21 58 21Z" fill="#212121"/>
<path d="M57.5 20C57.7761 20 58 19.7761 58 19.5C58 19.2239 57.7761 19 57.5 19C57.2239 19 57 19.2239 57 19.5C57 19.7761 57.2239 20 57.5 20Z" fill="#FFEBEE"/>
<path fill-rule="evenodd" clip-rule="evenodd" d="M65 21.9105C64.5768 21.1934 63.5954 20.4657 62.7258 20.015C62.3147 19.802 61.4593 19.3588 61.3833 19.1529C61.3813 19.1032 61.3762 19.0521 61.3683 19C61.2586 19.2477 60.9915 19.8888 61.0002 20.2379C61.0094 20.611 61.5935 21.5859 61.7684 21.8699C61.7657 21.8559 61.7629 21.842 61.7599 21.8283C62.3992 21.926 64.586 22.1108 65 21.9105Z" fill="#FFFFFE"/>
<path fill-rule="evenodd" clip-rule="evenodd" d="M62.4293 25.1868C63.1569 24.3773 63.0444 23.1132 62.871 22.3123C62.4953 22.065 61.9457 21.7135 61.2447 22.4037C60.7909 22.8505 59.8537 22.1329 59.549 23.3246C59.4033 23.8947 58.639 22.8066 58.0734 23.8235C57.5379 24.7865 60.0888 25.9407 60.6539 26C60.6527 25.9716 60.651 25.9433 60.6497 25.9152C60.7569 25.947 60.8701 25.9635 60.9863 25.9635C61.4632 25.9635 61.9471 25.7038 62.4293 25.1868Z" fill="#D50000"/>
<path fill-rule="evenodd" clip-rule="evenodd" d="M56.5592 22C56.2319 22.8026 57.0491 22.224 57.0491 22.6912C57.0491 23.4048 57.34 22.8624 57.5645 23.3198C57.6286 23.4505 58.0502 23.7758 57.9767 23.9574C57.5998 23.9926 56.9989 24.2975 56.4403 23.8096C55.8736 23.3146 55.8634 22.2838 56.3552 22.1728C56.3981 22.1493 56.5296 22.0729 56.5592 22Z" fill="#D50000"/>
<path fill-rule="evenodd" clip-rule="evenodd" d="M52.6804 41.0739C52.651 41.3761 52.5169 42.0495 52.2914 42.4325C53.0938 42.6228 53.3066 42.8965 52.1868 43.8835C50.9067 45.0119 50.393 44.3427 50.833 45.4575C51.1731 46.3188 49.3524 45.6937 49.5975 46.68C49.7776 47.4046 48.7265 46.7406 48.4814 47.834C48.2898 48.6883 47.4343 48.3759 46.6288 48.9288C44.7083 50.2469 42.7449 49.6299 40.6177 48.7802C37.8097 47.6586 38.4921 46.7338 36.7233 44.926C37.5302 45.5271 37.4669 45.4778 38.0059 46.3028C39.1618 48.072 40.1808 48.4551 42.2783 48.9853C45.9587 49.9156 45.3448 48.7029 47.2591 48.1628C48.8927 47.7018 47.3012 47.1417 49.0481 46.6859C48.7592 45.7952 49.6944 45.7886 50.2442 45.5328C49.4549 44.0919 51.853 43.9127 52.2544 42.9991C50.7232 42.7866 51.9131 42.4231 52.0299 41.0218C52.0452 40.8528 52.2032 40.7275 52.3828 40.7418C52.5625 40.7563 52.6958 40.9049 52.6804 41.0739Z" fill="#703112"/>
<path fill-rule="evenodd" clip-rule="evenodd" d="M50.0558 41.4207C48.9736 43.8542 46.2883 45.6886 43.4591 45.556L42.0281 45.3293L43.468 45.3175C46.1145 45.1353 48.4884 43.5885 49.4282 41.2513C49.4779 41.0882 49.6587 40.994 49.832 41.0407C50.0053 41.0875 50.1055 41.2576 50.0558 41.4207Z" fill="#703112"/>
<path fill-rule="evenodd" clip-rule="evenodd" d="M46.2517 41.9389C44.339 44.3236 40.6692 44.8979 38.0335 43.2877L37.9442 43.2228L37.8655 43.1406C38.032 43.1742 37.9308 43.1471 38.0848 43.2041C40.8531 44.2304 43.9009 44.0294 45.7235 41.5778C45.8295 41.4405 46.0337 41.4101 46.1795 41.5098C46.3254 41.6095 46.3577 41.8016 46.2517 41.9389Z" fill="#703112"/>
<path fill-rule="evenodd" clip-rule="evenodd" d="M42.4816 41.1511C40.1575 43.2028 35.8878 41.3835 35.0497 39.3394C35.31 39.5395 35.0837 39.3511 35.3196 39.5802C36.8774 41.0936 40.0884 42.5677 41.9843 40.753C42.1012 40.6238 42.3072 40.6081 42.4446 40.7181C42.5819 40.828 42.5985 41.0218 42.4816 41.1511Z" fill="#703112"/>
<path fill-rule="evenodd" clip-rule="evenodd" d="M32.1991 40.0754C33.9504 40.9999 34.9657 41.4035 36.886 41.9502C34.7463 41.9004 33.7621 41.4543 31.8589 40.5997C31.705 40.5113 31.6564 40.3223 31.7504 40.1775C31.8444 40.0327 32.0452 39.987 32.1991 40.0754Z" fill="#703112"/>
<path fill-rule="evenodd" clip-rule="evenodd" d="M33.7679 46.1958C33.8688 46.5045 36.7308 46.6962 37.0894 46.7499C36.3083 46.9049 33.652 47.3892 33.1459 46.3825C33.0911 46.2209 33.186 46.0481 33.3577 45.9966C33.5295 45.945 33.7131 46.0343 33.7679 46.1958Z" fill="#703112"/>
<path fill-rule="evenodd" clip-rule="evenodd" d="M33.2503 31.4073C34.7438 31.6974 36.8115 34.703 37.228 35.663L37.5784 36.6877C37.5784 36.6877 36.7662 35.2306 36.3909 34.7051C36.1085 34.3095 34.0539 31.9739 33.3578 31.8803C33.2003 31.8635 33.0486 31.7439 33.0189 31.6132C32.9892 31.4827 33.0928 31.3905 33.2503 31.4073Z" fill="#B87654"/>
<path fill-rule="evenodd" clip-rule="evenodd" d="M31.5461 31.7896C34.2452 31.9472 36.1639 36.8072 36.0848 36.8517C35.4432 36.1623 33.6282 32.3114 31.7619 32.2718C31.6 32.2745 31.4205 32.1688 31.3609 32.0355C31.3013 31.9024 31.3842 31.7922 31.5461 31.7896Z" fill="#B87654"/>
<path fill-rule="evenodd" clip-rule="evenodd" d="M30.6689 32.9284C31.9146 32.209 33.9454 34.515 34.4466 35.3434C34.8566 36.021 34.8321 36.044 35.2469 37.4229C35.1384 37.226 34.2402 35.5824 34.1036 35.3881C33.7968 34.9514 31.9055 32.8377 31.14 33.3376C31.0274 33.4068 30.8306 33.3712 30.7005 33.2582C30.5705 33.1453 30.5563 32.9976 30.6689 32.9284Z" fill="#B87654"/>
<path fill-rule="evenodd" clip-rule="evenodd" d="M30.5962 34.3367C32.7693 34.833 33.3324 35.1479 34.5766 37.0878C35.0139 37.7697 35.0489 37.89 35.1306 38.542C34.8691 37.9798 34.7418 37.7037 34.3321 37.1566C32.9782 35.3487 32.6622 35.1908 30.6289 34.8037C30.4708 34.7683 30.3353 34.635 30.3263 34.5061C30.3173 34.3771 30.4381 34.3013 30.5962 34.3367Z" fill="#B87654"/>
<path fill-rule="evenodd" clip-rule="evenodd" d="M56.4282 33.4071C59.0915 38.3638 60.6695 42.2507 57.8699 47.5318C59.8981 41.7096 58.8722 39.0429 55.8733 33.7309C55.7782 33.5867 55.8254 33.3974 55.9786 33.3079C56.1318 33.2185 56.3331 33.263 56.4282 33.4071Z" fill="#B87654"/>
<path fill-rule="evenodd" clip-rule="evenodd" d="M57.68 42.9494C57.5582 45.7491 57.2439 48.5111 54.0299 49.5804C56.9223 47.5909 57.0305 46.2531 57.0271 42.9494C57.0271 42.7798 57.1732 42.6423 57.3536 42.6423C57.5339 42.6423 57.68 42.7798 57.68 42.9494Z" fill="#B87654"/>
<path fill-rule="evenodd" clip-rule="evenodd" d="M45.5327 71.2111C44.5299 69.7954 45.1479 66.4449 45.4796 65C44.4305 65.0028 43.3668 65.0279 42.3141 65.0306L42.8282 68.8577C42.2809 69.1943 40.7191 70.4441 39.9572 70.9425C39.8272 71.0274 39.5762 70.9398 39.5119 70.9834C39.1503 71.2289 38.9114 72.421 39.0312 72.7697C39.1367 73.0766 39.3462 71.9076 39.693 71.9076C39.8188 71.9076 39.9963 72.0365 40.1222 71.9849C40.2385 71.9372 40.386 71.8777 40.5285 71.813C40.8613 71.6616 41.251 71.4844 41.6427 71.3786C41.6361 71.9792 41.8484 72.5329 42.2776 73.0305C43.9082 74.921 48.0513 75.3075 49.0717 75.3075C49.5011 75.3075 49.6648 75.2637 49.7788 75.198C50.069 75.0298 50.9867 75.8374 50.943 75.6069C50.8674 75.2114 49.6025 74.1127 48.9494 73.9899C48.5745 73.9194 48.0981 73.7389 47.7724 73.5731C48.0992 73.543 48.6423 73.5167 49.5425 73.5167C49.9535 73.5167 50.3419 73.522 50.6395 73.5258C50.8285 73.5284 50.9818 73.5304 51.0826 73.5304C52.1049 73.2198 53 74.2361 53 73.7283C53 73.5242 52.332 72.1004 52.1465 71.9889C52.003 71.9028 51.8217 71.8609 51.592 71.8609C51.4509 71.8609 51.2332 71.8698 50.9608 71.881C50.5289 71.8992 49.9377 71.9237 49.3071 71.9237C46.8542 71.9237 45.8993 71.5414 45.5327 71.2111Z" fill="#FFFFFE"/>
</svg>
